<svg class="diagram-root" style="background: #f5f6f6" xmlns="http://www.w3.org/2000/svg" xmlns:xlink="http://www.w3.org/1999/xlink"><style>.diagram-root { font-family: "Helvetica Neue", sans-serif; font-size: 12px; } .t { overflow: visible; } .t-bg { y: 40; fill: #fff;   } .th { fill: #005aa0;   } .tht { fill: #fff; font-size: 14px;  } .tf { fill: #323c46; overflow: visible; } .tf.pk { fill: #005aa0; font-weight: bold; } .tf.fk { font-weight: bold; } .ty { fill: #adb1b5; font-weight: normal; text-anchor: end; } .r { fill: transparent; stroke: #c3c3c3; stroke-width: 1; } .l { stroke: 1; } .i { fill: #c2c7ce; stroke: #c2c7ce; } .i.ix { fill: #afb3b6; stroke: #000; } .fa { fill: transparent; overflow: visible; } .fa .bg.hover { fill: #f7f7f7; } .c { cy: 12; r: 4; stroke: #d2d2dc; fill: #d2d2dc; } .hr { fill: transparent; stroke: #323c46; stroke-opacity: 0.035; stroke-width: 13; } .dc { stroke: #fa5a3c; fill: #fa5a3c; } .x { stroke: white; stroke-width: 1; } .hl .th { fill: #1b9bff; } .hl .tht {  } .fhl .bg { fill: #e7f4ff; } .fhls .bg {  } .r.hl { stroke: #1b9bff; } .dim { opacity: 0.25; }</style><g class="drawing-wrapper" transform="translate(-37.58, 20.285714285714292) scale(1,1)"><g class="rs"><path d="M 65.43 66.71000000000001 m -1, 0 a 1,1 0 1,0 2,0 a 1,1 0 1,0 -2,0 M 65.43 66.71000000000001 m -0.5, 0 a 0.5,0.5 0 1,0 1,0 a 0.5,0.5 0 1,0 -1,0  M65.43 66.71000000000001 L65.43 66.71000000000001 53.43000000000001 66.71000000000001 M 65.43 72.71000000000001 m -1, 0 a 1,1 0 1,0 2,0 a 1,1 0 1,0 -2,0 M 65.43 72.71000000000001 m -0.5, 0 a 0.5,0.5 0 1,0 1,0 a 0.5,0.5 0 1,0 -1,0  M65.43 72.71000000000001 L65.43 72.71000000000001 58.43000000000001 66.71000000000001 65.43 60.71000000000001 M 65.43 60.71000000000001 m -1, 0 a 1,1 0 1,0 2,0 a 1,1 0 1,0 -2,0 M 65.43 60.71000000000001 m -0.5, 0 a 0.5,0.5 0 1,0 1,0 a 0.5,0.5 0 1,0 -1,0  M53.43000000000001 66.71000000000001 C -1.0499999999999998 66.71000000000001, 0.6300000000000026 446.08, 50.63 446.08 M 62.63 446.08 m -1, 0 a 1,1 0 1,0 2,0 a 1,1 0 1,0 -2,0 M 62.63 446.08 m -0.5, 0 a 0.5,0.5 0 1,0 1,0 a 0.5,0.5 0 1,0 -1,0  M62.63 446.08 L62.63 446.08 50.63 446.08 M56.63 452.08 L56.63 452.08 56.63 440.08" id="h734399193" class="r"></path><path d="M 59.58 562.47 m -1, 0 a 1,1 0 1,0 2,0 a 1,1 0 1,0 -2,0 M 59.58 562.47 m -0.5, 0 a 0.5,0.5 0 1,0 1,0 a 0.5,0.5 0 1,0 -1,0  M59.58 562.47 L59.58 562.47 47.58 562.47 M 59.58 568.47 m -1, 0 a 1,1 0 1,0 2,0 a 1,1 0 1,0 -2,0 M 59.58 568.47 m -0.5, 0 a 0.5,0.5 0 1,0 1,0 a 0.5,0.5 0 1,0 -1,0  M59.58 568.47 L59.58 568.47 52.58 562.47 59.58 556.47 M 59.58 556.47 m -1, 0 a 1,1 0 1,0 2,0 a 1,1 0 1,0 -2,0 M 59.58 556.47 m -0.5, 0 a 0.5,0.5 0 1,0 1,0 a 0.5,0.5 0 1,0 -1,0  M47.58 562.47 C 17.09970654851089 562.47, 15.26970654851089 471.08, 50.63 471.08 M 62.63 471.08 m -1, 0 a 1,1 0 1,0 2,0 a 1,1 0 1,0 -2,0 M 62.63 471.08 m -0.5, 0 a 0.5,0.5 0 1,0 1,0 a 0.5,0.5 0 1,0 -1,0  M62.63 471.08 L62.63 471.08 50.63 471.08 M56.63 477.08 L56.63 477.08 56.63 465.08" id="h1672873365" class="r"></path><path d="M 454.45 145.14 m -1, 0 a 1,1 0 1,0 2,0 a 1,1 0 1,0 -2,0 M 454.45 145.14 m -0.5, 0 a 0.5,0.5 0 1,0 1,0 a 0.5,0.5 0 1,0 -1,0  M454.45 145.14 L454.45 145.14 466.45 145.14 M 454.45 151.14 m -1, 0 a 1,1 0 1,0 2,0 a 1,1 0 1,0 -2,0 M 454.45 151.14 m -0.5, 0 a 0.5,0.5 0 1,0 1,0 a 0.5,0.5 0 1,0 -1,0  M454.45 151.14 L454.45 151.14 461.45 145.14 454.45 139.14 M 454.45 139.14 m -1, 0 a 1,1 0 1,0 2,0 a 1,1 0 1,0 -2,0 M 454.45 139.14 m -0.5, 0 a 0.5,0.5 0 1,0 1,0 a 0.5,0.5 0 1,0 -1,0  M466.45 145.14 C 516.45 145.14, 631.278 198.29, 275.07 198.29 M 263.07 198.29 m -1, 0 a 1,1 0 1,0 2,0 a 1,1 0 1,0 -2,0 M 263.07 198.29 m -0.5, 0 a 0.5,0.5 0 1,0 1,0 a 0.5,0.5 0 1,0 -1,0  M263.07 198.29 L263.07 198.29 275.07 198.29 M269.07 204.29 L269.07 204.29 269.07 192.29" id="h221257298" class="r"></path><path d="M 454.48 283 m -1, 0 a 1,1 0 1,0 2,0 a 1,1 0 1,0 -2,0 M 454.48 283 m -0.5, 0 a 0.5,0.5 0 1,0 1,0 a 0.5,0.5 0 1,0 -1,0  M454.48 283 L454.48 283 466.48 283 M 454.48 289 m -1, 0 a 1,1 0 1,0 2,0 a 1,1 0 1,0 -2,0 M 454.48 289 m -0.5, 0 a 0.5,0.5 0 1,0 1,0 a 0.5,0.5 0 1,0 -1,0  M454.48 289 L454.48 289 461.48 283 454.48 277 M 454.48 277 m -1, 0 a 1,1 0 1,0 2,0 a 1,1 0 1,0 -2,0 M 454.48 277 m -0.5, 0 a 0.5,0.5 0 1,0 1,0 a 0.5,0.5 0 1,0 -1,0  M466.48 283 C 516.48 283, 631.326 223.29, 275.07 223.29 M 263.07 223.29 m -1, 0 a 1,1 0 1,0 2,0 a 1,1 0 1,0 -2,0 M 263.07 223.29 m -0.5, 0 a 0.5,0.5 0 1,0 1,0 a 0.5,0.5 0 1,0 -1,0  M263.07 223.29 L263.07 223.29 275.07 223.29 M269.07 229.29 L269.07 229.29 269.07 217.29" id="h2157073902" class="r"></path></g><g class="hrs"></g><g class="ts"><svg width="163.84" height="100" x="65.43" y="9.71" id="h3708248841" class="t"><rect height="40" width="163.84" class="th"></rect><text x="13" y="25" class="tht">Departments</text><rect height="60" width="163.84" class="t-bg"></rect><text x="13" y="61" class="tf fk">dept_no<tspan x="150.84" class="ty">VARCHAR</tspan></text><text x="13" y="86" class="tf">dept_name<tspan x="150.84" class="ty">VARCHAR</tspan></text></svg><svg width="191.76" height="100" x="59.58" y="505.47" id="h1983246205" class="t"><rect height="40" width="191.76" class="th"></rect><text x="13" y="25" class="tht">Employee_by_Department</text><rect height="60" width="191.76" class="t-bg"></rect><text x="13" y="61" class="tf fk">emp_no<tspan x="178.76" class="ty">VARCHAR</tspan></text><text x="13" y="86" class="tf">dept_no<tspan x="178.76" class="ty">VARCHAR</tspan></text></svg><svg width="184.76" height="100" x="62.63" y="389.08" id="h1117568577" class="t"><rect height="40" width="184.76" class="th"></rect><text x="13" y="25" class="tht">Manager_by_Department</text><rect height="60" width="184.76" class="t-bg"></rect><text x="13" y="61" class="tf fk">dept_no<tspan x="171.76" class="ty">VARCHAR</tspan></text><text x="13" y="86" class="tf fk">emp_no<tspan x="171.76" class="ty">VARCHAR</tspan></text></svg><svg width="138.48" height="100" x="316" y="226" id="h3517680912" class="t"><rect height="40" width="138.48" class="th"></rect><text x="13" y="25" class="tht">Titles</text><rect height="60" width="138.48" class="t-bg"></rect><text x="13" y="61" class="tf fk">title_id<tspan x="125.47999999999999" class="ty">VARCHAR</tspan></text><text x="13" y="86" class="tf">title<tspan x="125.47999999999999" class="ty">VARCHAR</tspan></text></svg><svg width="168.5" height="225" x="94.57" y="141.29" id="h3299212598" class="t"><rect height="40" width="168.5" class="th"></rect><text x="13" y="25" class="tht">Employees</text><rect height="185" width="168.5" class="t-bg"></rect><text x="13" y="61" class="tf fk">emp_no<tspan x="155.5" class="ty">VARCHAR</tspan></text><text x="13" y="86" class="tf fk">emp_title_id<tspan x="155.5" class="ty">VARCHAR</tspan></text><text x="13" y="111" class="tf">birth_date<tspan x="155.5" class="ty">VARCHAR</tspan></text><text x="13" y="136" class="tf">first_name<tspan x="155.5" class="ty">VARCHAR</tspan></text><text x="13" y="161" class="tf">last_name<tspan x="155.5" class="ty">VARCHAR</tspan></text><text x="13" y="186" class="tf">sex<tspan x="155.5" class="ty">VARCHAR</tspan></text><text x="13" y="211" class="tf">hire_date<tspan x="155.5" class="ty">VARCHAR</tspan></text></svg><svg width="147.16" height="100" x="307.29" y="88.14" id="h3858243705" class="t"><rect height="40" width="147.16" class="th"></rect><text x="13" y="25" class="tht">Salaries</text><rect height="60" width="147.16" class="t-bg"></rect><text x="13" y="61" class="tf fk">emp_no<tspan x="134.16" class="ty">VARCHAR</tspan></text><text x="13" y="86" class="tf">salary<tspan x="134.16" class="ty">VARCHAR</tspan></text></svg></g></g><text class="qdbd-link" x="10" y="20">www.quickdatabasediagrams.com</text></svg>